<?xml version="1.0"?>
<svg xmlns:rdf="http://www.w3.org/1999/02/22-rdf-syntax-ns#" xmlns="http://www.w3.org/2000/svg" xmlns:cc="http://creativecommons.org/ns#" xmlns:xlink="http://www.w3.org/1999/xlink" xmlns:dc="http://purl.org/dc/elements/1.1/" xmlns:svg="http://www.w3.org/2000/svg" id="svg4138" viewBox="0 0 800 526.46" version="1.1">
  <title id="title5331">Golf Green</title>
  <defs id="defs4140">
    <linearGradient id="linearGradient5329" x1="36.797" gradientUnits="userSpaceOnUse" y1="984.21" gradientTransform="translate(0 -.0000040320)" x2="754.37" y2="177.86">
      <stop id="stop4967" stop-color="#83e25f" offset="0"/>
      <stop id="stop4969" stop-color="#437630" offset="1"/>
    </linearGradient>
  </defs>
  <g id="layer1" transform="translate(-36.797 -457.75)">
    <g id="g5287" transform="matrix(.55743 0 0 .55743 16.285 435.58)">
      <path id="path4451" d="m1217 983.29c-86.998-3.3052-206.37-29.999-341-76.253-39.36-13.522-63.35-22.218-122.37-44.355-60.98-22.87-82.03-30.33-95.39-33.82-26.23-6.84-72.83-5.81-139.24 3.1-25.198 3.3798-56.707 8.5768-120 19.792-60.109 10.651-90.237 15.453-119.5 19.045-36.37 4.4648-45.952 5.0638-81 5.0638-44.444 0-55.768-1.7131-87-13.161-39.472-14.47-65.904-33.31-72.307-51.54-11.02-31.37 15.5-64.86 89.307-112.79 14.888-9.6666 40.119-24.885 102-61.52 44.944-26.608 71.392-44.873 88.368-61.029 15.098-14.368 18.376-23.222 12.103-32.693-9.32-14.08-37.44-23.83-117.47-40.76-63.23-13.37-86.21-20.76-96.04-30.89-7.12-7.32-3.15-16.26 11.04-24.92 5.4594-3.3286 10.644-5.3474 40.5-15.77 18.494-6.4563 20.676-7.2725 38-14.212 70.567-28.268 109.61-54.933 113.93-77.807 1.8671-9.8962-2.0451-19.355-12.288-29.71-7.6533-7.737-15.057-13.016-38.775-27.648-28.895-17.825-34.852-23.175-34.861-31.305-0.005-4.8023 5.2192-10.291 13.542-14.228 13.273-6.2793 50.181-16.752 82.454-23.397 78.11-16.082 173.64-26.984 292-33.324 36.326-1.9457 138.89-1.6486 173 0.50123 171.33 10.798 342.33 33.365 412 54.373 47.945 14.458 58.09 27.802 31.467 41.387-10.547 5.3818-12.86 7.9184-12.14 13.316 1.1201 8.3978 10.746 18.797 36.178 39.083 8.2474 6.5788 18.344 14.807 22.438 18.284 9.9662 8.4665 24.204 18.025 43.557 29.241 8.8 5.1 18.808 11.259 22.239 13.686 18.125 12.82 29.749 28.939 35.722 49.535 4.7492 16.375-7.2149 25.554-55.159 42.317-56.323 19.693-70.903 26.474-84.492 39.292-12.546 11.835-14.952 22.527-8.8154 39.171 6.9119 18.746 16.205 32.533 33.376 49.519 18.901 18.696 37.906 32.554 89.128 64.988 45.991 29.121 61.225 40.262 78.518 57.422 23.05 22.872 31.894 41.452 31.93 67.083 0.039 27.883-12.919 57.33-41.145 93.5-15.325 19.639-40.285 46.264-52.303 55.793-26.694 21.166-65.67 32.814-119.25 35.639-11.137 0.5872-20.812 0.9931-21.5 0.9019-0.6877-0.091-10.025-0.4993-20.75-0.9067zm-718.66-264.43c1.9723-0.82409 4.1129-2.4827 4.7568-3.6858 1.0182-1.9025 0.80404-2.5029-1.6443-4.6088s-3.5748-2.3664-8.6481-1.9994c-13.676 0.98924-16.155 11.792-2.7058 11.792 2.5605 0 6.2691-0.67426 8.2414-1.4984z" fill="url(#linearGradient5329)"/>
      <path id="path5130" style="color:#000000" fill-opacity=".29412" d="m485.62 703.11c-0.8372-2.8875-7.6398-27.075-15.117-53.75-7.4771-26.675-16.759-59.75-20.626-73.5-3.8675-13.75-8.0093-26.46-9.2041-28.245-2.6484-3.9566-7.6233-6.4814-11.95-6.0648l-3.22 0.3 0.33678-6.5c0.52096-10.055 5.3029-31 7.0776-31 2.5372 0 14.838 17.953 20.229 29.523 1.7877 3.8372 4.7357 9.4518 6.551 12.477 3.284 5.4724 3.971 8.4051 2.508 10.707-0.59256 0.93233-1.6699 0.88543-4.7347-0.2061-7.992-2.8464-8.557-6.2988 9.1239 55.749 17.435 61.184 18.75 65.758 23.397 81.361 3.8734 13.005 3.8813 14.389 0.0823 14.389-2.6735 0-3.0618-0.45806-4.4512-5.25z"/>
      <path id="path5114" style="color:#000000" fill-opacity=".29412" d="m642.72 634.93c-3.1984-1.5519-5.7156-3.7671-7.6086-6.6958-1.5559-2.4071-13.984-31.466-27.619-64.574-23.193-56.321-24.955-60.217-27.361-60.5-1.7302-0.20331-3.5016-1.6917-5.4176-4.5521-2.713-4.0502-3.081-4.25-7.8284-4.25-4.6557 0-5.3141 0.33262-10.068 5.0862-4.7384 4.7384-5.3322 5.04-8.684 4.4112-5.0983-0.95645-7.0213-2.1978-7.7206-4.9839l-0.60959-2.4288-2.7119 2.005c-2.356 1.7419-3.6048 1.9135-9.5158 1.3079-6.4362-0.65941-6.8755-0.86838-8.1283-3.8668-1.5155-3.6271-7.3234-6.1482-12.101-5.2527-1.5662 0.29358-4.6026 0.87093-6.7476 1.283-3.1612 0.60732-4.1484 0.40946-5.2116-1.0446-0.72143-0.98661-2.3414-2.3124-3.6-2.9461-2.4261-1.2217-2.6114-2.6272-1.7148-13.009 0.42385-4.9077 0.40588-4.9425-2.9162-5.6426-4.9098-1.0348-5.6283-2.272-5.9361-10.22-0.15332-3.9594-0.37832-9.899-0.5-13.199-0.12167-3.3 0.14347-7.4235 0.58921-9.1634 0.68216-2.6627 0.50138-3.2615-1.142-3.7831-1.0739-0.34083-2.1714-1.457-2.4391-2.4805-0.29637-1.1333-1.8046-2.1412-3.858-2.5782-1.84-0.41-4.04-1.29-4.86-1.98-0.825-0.68992-2.7375-1.5484-4.25-1.9078-1.559-0.37041-2.75-1.3353-2.75-2.2279 0-0.86601-0.94348-1.8213-2.0966-2.1228-1.6888-0.44164-1.988-1.0916-1.5379-3.3418 0.46347-2.3173 0.18794-2.8471-1.6164-3.1081-2.0522-0.2968-3.7539-4.0853-3.9593-8.8146-0.2798-6.4412 5.3323-25.156 10.246-34.169 1.1002-2.0178 3.5022-8.0928 5.338-13.5 1.8357-5.4072 5.6716-16.581 8.5242-24.831s6.0276-17.475 7.0555-20.5 3.5219-9.325 5.5421-14 4.5994-11.2 5.7315-14.5c1.1322-3.3 2.211-6.1794 2.3974-6.3986 0.31109-0.36586 5.511 2.9128 32.375 20.414 5.225 3.4038 16.008 10.418 23.962 15.587 44.505 28.922 89.071 59.218 92.716 63.03 4.7461 4.9622 7.8245 11.729 6.9397 15.254-0.37896 1.5099-0.0516 2.84 0.89153 3.6227 1.8808 1.561 1.9012 3.4061 0.0546 4.9386-0.78965 0.65535-1.7141 2.4591-2.0544 4.0083-0.46249 2.1057-1.3623 2.9655-3.5643 3.4059-3.7747 0.75494-3.7187 1.7512 0.22951 4.0835 1.7463 1.0316 5.9088 4.1818 9.25 7.0004s7.8749 6.4448 10.075 8.0581c11.862 8.6987 14.152 11.508 12.546 15.386-1.0627 2.5656-0.84553 3.0762 2.9027 6.8244 3.0161 3.0161 4.0513 4.8543 4.0513 7.1937 0 3.7145-2.5889 5.0929-9.5651 5.0929-4.6178 0-5.4835 0.88487-2.9349 3 0.825 0.68469 1.5 2.0898 1.5 3.1224 0 1.8354-0.77851 2.1337-6 2.2986-1.801 0.0569-2.5894 0.70808-2.8196 2.329-0.17575 1.2375-0.98029 2.25-1.7878 2.25-1.0049 0-1.3774 0.86792-1.1804 2.75 0.26132 2.4966-0.0117 2.7491-2.9622 2.7403-2.9178-0.009-3.25 0.28519-3.25 2.875 0 2.6719-0.22132 2.8404-3 2.2847-2.6705-0.53409-3-0.33486-3 1.8137 0 2.0966-0.59543 2.503-4.5327 3.0934-2.493 0.37385-5.8576 0.41476-7.4768 0.0909l-2.9441-0.58881 0.61273 4.4704c0.57844 4.2202 0.47922 4.469-1.7732 4.4465-1.3122-0.0131-4.0819-0.41765-6.1548-0.89895-4.9299-1.1447-6.5065 1.1005-3.8631 5.5013 0.96516 1.6068 4.8273 8.7715 8.5826 15.922 6.3206 12.035 34.646 65.601 47.152 89.172 2.96 5.62 5.39 11.38 5.39 12.82 0 3.0414-2.1408 7.5706-4.5062 9.5338-3.0774 2.554-12.986 6.0293-18.494 6.4862-17.734 1.4714-17.318 1.4886-22.28-0.91907z"/>
      <path id="path5098" d="m949.23 820.46c-2.3487-0.40315-5.4987-1.7121-7-2.9088-1.5-1.2-4.31-3.04-6.23-4.09-1.925-1.0488-4.4741-2.9633-5.6646-4.2543s-15.531-25.072-31.867-52.847-34.089-57.925-39.45-67c-5.3613-9.075-18.18-30.9-28.486-48.5s-19.561-32.722-20.567-33.605c-1.2336-1.0826-4.5499-1.7746-10.193-2.1266-4.6005-0.28702-11.494-1.4744-15.319-2.6386-3.8247-1.1642-9.4854-2.59-12.579-3.1684-3.1174-0.58279-7.7984-2.4546-10.5-4.1988-2.68-1.73-8.25-5.23-12.37-7.79-4.125-2.5564-13.35-8.3631-20.5-12.904-7.15-4.5406-17.05-10.207-22-12.591-8.5645-4.126-10.045-5.3674-30.594-25.654-21.38-21.12-30.56-32.15-33-39.67-1.1752-3.6229-2.9894-6.5226-13.264-21.201-2.9022-4.146-7.6627-13.146-10.579-20-6.1982-14.567-7.4234-22.531-4.6973-30.532l1.6239-4.7659-4.4401-7.582c-4.7862-8.173-6.9728-15.523-5.909-19.863 0.36652-1.4953 2.1222-5.8688 3.9014-9.7188s3.529-9.025 3.8884-11.5c2.2187-15.281 9.3286-22.552 28.507-29.152 4.2932-1.4775 8.5038-1.9301 18.485-1.9868 8.3816-0.0476 14.328-0.56847 16.917-1.4818 2.1954-0.77458 4.7041-1.1883 5.5749-0.91943 0.8708 0.26889 5.7312 0.95315 10.801 1.5206 12.852 1.4385 23.334 5.0135 32.282 11.011 4.125 2.7648 9.872 5.9198 12.771 7.0113 7.5653 2.8482 14.371 6.4317 23.626 12.44 4.4565 2.8931 10.745 6.7894 13.975 8.6585 3.5155 2.0343 9.5363 7.2554 15 13.007 5.02 5.285 11.827 11.421 15.127 13.635 7.5314 5.054 18.284 16.198 21.957 22.755 7.242 12.931 10.338 17.48 16.077 23.621 3.6366 3.8913 7.7024 9.6634 9.8615 14 2.0205 4.0584 4.7757 9.1788 6.1227 11.379 1.347 2.2 3.4135 6.925 4.5923 10.5s3.7043 9.875 5.6123 14c4.3667 9.4406 6.6204 23.173 5.0191 30.582-1.5392 7.1212-1.3357 10.217 1.0939 16.643 2.5145 6.6509 2.7937 13.838 0.68447 17.621-0.81399 1.4599-2.6219 5.3156-4.0175 8.5683-4.9177 11.461-9.9546 16.334-20.003 19.351-1.65 0.4954-3.1402 1.6232-3.3114 2.5062-0.24466 1.2612 36.663 54.292 90.634 130.23 29.34 41.281 47.475 67.174 48.683 69.511 3.5937 6.9494 0.63633 14.941-7.0974 19.179-7.7278 4.2347-9.4648 4.8729-13.307 4.8887-1.9808 0.008-6.3014 0.17976-9.6014 0.38133-3.3 0.20156-7.9216 0.0366-10.27-0.36652z" fill-opacity=".29412"/>
      <g id="g5269">
        <path id="path5194" style="color:#000000" fill-opacity=".29412" d="m556.66 766.31c-4.7851-3.7639-5.4974-12.351-1.2593-15.181 4.75-3.17 13.6 3.1 13.6 9.63 0 6.8588-6.792 9.9112-12.341 5.5464z"/>
        <path id="path5082" d="m557.45 765.91c-1.35-1.35-2.4546-3.6204-2.4546-5.0454s1.1046-3.6954 2.4546-5.0454c3.3402-3.3402 7.7635-3.2641 10.473 0.18031 3.3651 4.278 2.3694 8.5489-2.6117 11.202-3.262 1.7374-5.1413 1.4287-7.8612-1.2912z" fill="#fff"/>
      </g>
      <g id="g5283">
        <path id="path5192" style="color:#000000" fill-opacity=".29412" d="m786.57 715.42c-3.6485-2.4051-5.486-5.6208-5.532-9.6812-0.0463-4.0874 2.0821-5.7989 6.1896-4.9774 4.9596 0.99191 9.775 6.2144 9.775 10.601 0 1.9821-0.54 4.1438-1.2 4.8038-1.779 1.779-5.9081 1.4452-9.2326-0.74634z"/>
        <path id="path5080" d="m789.85 716.15c-3.7823-1.2663-5.694-6.1944-3.7479-9.6615 0.8025-1.4298 2.6836-3.0302 4.1802-3.5565 5.852-2.058 11.434 6.771 7.2226 11.424-2.1336 2.3576-4.3907 2.8865-7.6549 1.7936z" fill="#fff"/>
      </g>
      <g id="g5255">
        <path id="path5167" style="color:#000000" fill-opacity=".29412" d="m403.65 633.53c-2.2366-2.4714-2.1382-8.4239 0.17375-10.516 2.6504-2.3985 6.8655-2.0517 9.7167 0.79956 2.8184 2.8184 3.137 6.1261 0.89785 9.3229-2.0031 2.8598-8.347 3.0914-10.788 0.39377z"/>
        <path id="path5076" d="m405.22 633.81c-4.5525-3.1887-1.467-11.443 4.2775-11.443 1.375 0 3.4 0.9 4.5 2 5.7843 5.7843-2.0176 14.178-8.7775 9.4433z" fill="#fff"/>
      </g>
      <g id="g4405">
        <path id="path4411" d="m487.5 745.83c-2.2-0.79169-4.0579-1.4462-4.1287-1.4545-0.99506-0.11643-2.5343-7.9872-3.4768-17.778-1.3545-14.071-1.0491-14.892 6.8616-18.431 3.6712-1.6426 5.0456-1.7609 10-0.86075 3.4664 0.62982 6.3784 1.8096 7.3442 2.9756 1.57 1.87 3.91 17.45 3.91 25.93 0 7.6313-11.29 12.922-20.5 9.608z" fill="#a49797"/>
        <path id="path4409" d="m485.75 743.79c-1.5125-0.82055-2.7701-1.815-2.7946-2.21-0.0245-0.39493-0.64749-6.3431-1.3844-13.218-1.3614-12.702-0.95659-16 1.9641-16 0.86791 0 1.4648 0.95083 1.4648 2.3333 0 2.5779 0.85623 3.8736 2.0658 3.126 0.43276-0.26747 0.40157-1.8297-0.0693-3.4716-0.96151-3.3525 0.7848-5.9878 3.9679-5.9878 2.1558 0 3.0356 1.9074 3.0356 6.5818 0 4.5048 2.9058 4.6311 6.3154 0.27445 2.3486-3.001 2.5087-3.0535 3.5245-1.1554 0.58529 1.0936 1.5914 7.0239 2.2358 13.178 1.0956 10.464 1.0501 11.326-0.70204 13.293-4.1326 4.6393-14.042 6.2833-19.624 3.2554z" fill="#5a5555"/>
        <path id="path4407" d="m486.07 742.61c-1.7106-1.3922-2.1933-2.9769-2.3608-7.75-0.20213-5.7611-0.11764-5.987 2.1221-5.6731 1.636 0.22924 3.4706-0.81603 6.143-3.5 6.1033-6.1298 10.791-9.5138 11.527-8.3219 0.36234 0.58628 1.144 5.5301 1.737 10.986 0.8943 8.2284 0.83786 10.21-0.33094 11.619-3.5818 4.3188-14.837 5.8957-18.838 2.6393z" fill="#1d1c1c"/>
      </g>
      <g id="g4375">
        <g id="g4266">
          <path id="path4270" d="m642.75 634.79c-2.61-1.36-4.75-2.96-4.75-3.55 0-0.59756-1.0547-2.3399-2.3438-3.8719-2.2472-2.6706-2.3727-3.6866-3.0442-24.644-0.79076-24.681-1.4503-43.84-5.1374-149.24l-2.602-74.379 2.7627-2.8837c3.9973-4.1723 12.79-6.5244 23.865-6.3836 9.979 0.12685 15.412 1.8637 17.801 5.6913 1.4584 2.3358 2.2398 11.999 13.207 163.33 1.9133 26.4 3.9315 53.252 4.4849 59.672 1.6201 18.792 1.3702 25.095-1.1203 28.262-2.2795 2.898-10.754 7.076-17.337 8.547-2.2202 0.49616-7.8616 1.1291-12.537 1.4065-7.6418 0.4535-8.9796 0.25554-13.25-1.9606z" fill="#936924"/>
          <path id="path4268" d="m643.25 633.37c-1.7875-1.0899-3.25-2.4597-3.25-3.044 0-0.58435-1.0486-2.0535-2.3302-3.2647-2.2794-2.1542-2.3562-2.8454-3.5203-31.702-1.4362-35.601-2.396-65.302-2.6338-81.5-0.0969-6.6-0.46731-13.125-0.82323-14.5-0.36648-1.4158-0.0417-3.801 0.74898-5.5 0.77689-1.6694 1.4321-2.292 1.4773-1.4036 0.11705 2.3005 3.0623 7.9036 4.1545 7.9036 0.50972 0 0.92676-0.9 0.92676-2s-0.50888-2-1.1308-2c-0.73114 0-0.93264-1.2214-0.57009-3.4556 0.56655-3.4912-1.051-9.5444-2.5505-9.5444-0.44714 0-1.1977 1.0125-1.668 2.25-1.7059 4.4894-1.7685 3.4299-4.0639-68.75-0.54222-17.05-1.2217-32.375-1.5099-34.055-0.4244-2.4737 0.0524-3.6069 2.5069-5.9585 3.9405-3.7752 10.354-5.3934 21.486-5.4208 8.9838-0.0221 16.14 1.9238 17.971 4.887 0.88961 1.4394 1.6825 10.643 5.4313 63.047 4.3389 60.652 5.3823 82.6 4.0456 85.097-0.86237 1.6114-0.77177 2.4399 0.40952 3.7452 1.5437 1.7058 2.3623 9.6242 4.6683 45.158 0.55323 8.525 1.4494 20.225 1.9915 26 1.2094 12.884 1.2418 23.043 0.0792 24.878-1.13 1.72-3.12 0.55-3.12-1.84 0-1.0002-0.70467-2.4034-1.5659-3.1182-0.86126-0.71479-2.1994-2.5246-2.9736-4.0218-1.2902-2.495-1.1988-3.03 1.0953-6.4105 4.0556-5.9763 5.9518-19.42 2.2115-15.68-2.1174 2.1174-5.7388 1.3721-6.792-1.3979-1.5165-3.9887-1.1749-6.5699 0.94287-7.1237 1.055-0.27588 2.4896-1.8813 3.1881-3.5676 1.2012-2.9001 1.0974-3.2101-1.9181-5.7276-2.82-2.36-3.19-3.25-3.19-7.78v-5.1179l2.6783 1.3895c1.4731 0.76424 2.9962 1.1931 3.3847 0.95294 1.2948-0.80021 1.6521-6.7457 0.64407-10.717-0.85995-3.3879-1.3164-3.8608-3.3513-3.4718-1.2957 0.24769-2.3902 0.17524-2.4323-0.16099-0.69526-5.551-1.2281-13.667-1.1562-17.611 0.17935-9.8367 1.0839-24.066 1.7669-27.795 0.52898-2.8879 0.28625-4.2463-1.0159-5.6852-1.7457-1.929-1.7319-7.4755 0.0397-15.922 0.70908-3.3807 0.69934-3.3919-1.5676-1.8041-1.4423 1.0102-3.33 1.388-5.1333 1.0273-1.719-0.34381-3.5046-0.029-4.4944 0.79247-0.99818 0.82842-3.904 1.3322-7.4095 1.2846-5.4569-0.0741-5.7896 0.0611-6.1817 2.5116-0.76675 4.7917 0.061 29.051 1.1034 32.336 0.56778 1.7894 1.3377 13.379 1.7109 25.754 1.1291 37.438 1.2407 39.233 2.9198 47 1.1462 5.302 1.581 11.986 1.4835 22.808-0.0992 11.016 0.21545 15.734 1.1222 16.826 1.0225 1.232 0.98934 1.6895-0.17567 2.4267-2.5729 1.628-10.261 1.0382-13.686-1.0499zm-3.25-53.01c0-2.1351-0.39521-4.1262-0.87825-4.4248-1.1378-0.70319-2.1777 4.4949-1.4533 7.2648 0.86 3.29 2.33 1.5 2.33-2.84zm-1.5-18c0-0.73333-0.5625-1.5208-1.25-1.75-0.74359-0.24786-1.25 0.46111-1.25 1.75s0.50641 1.9979 1.25 1.75c0.6875-0.22917 1.25-1.0167 1.25-1.75zm4.3196-9.1479c-0.34823-2.3406-3.2929-4.7121-4.434-3.571-0.39072 0.39073-0.19695 1.8373 0.4306 3.2146 1.4314 3.1416 4.4579 3.411 4.0034 0.35636zm-5.8898-33.102c-0.0386-0.6875-0.45702-2.15-0.92971-3.25-0.72021-1.676-0.87082-1.4735-0.92971 1.25-0.0387 1.7875 0.37971 3.25 0.92971 3.25s0.96837-0.5625 0.92971-1.25zm2.07-16.19c0-0.79254-0.45-1.7191-1-2.059-0.55-0.33992-1 0.30852-1 1.441s0.45 2.059 1 2.059 1-0.64844 1-1.441zm34 54.5c0-1.1325 0.45-2.059 1-2.059s1 0.64844 1 1.441c0 0.79254-0.45 1.7191-1 2.059-0.55 0.33992-1-0.30852-1-1.441zm-13.425-37.809c-0.70948-3.3422 1.5308-12.872 2.9248-12.441 0.55 0.16971 0.85648 1.0697 0.68107 2-0.17541 0.93029-0.567 4.2789-0.87019 7.4414-0.59048 6.1591-1.7867 7.4708-2.7357 3z" fill="#3b2a0d"/>
        </g>
        <g id="g4244">
          <path id="path4248" d="m606.03 479.25c-3.1614-1.2616-3.994-2.6263-4.0129-6.5778-0.008-1.755-0.37516-3.4134-0.81498-3.6852-0.43982-0.27182-2.7316 1.0346-5.0928 2.903-5.4371 4.3025-7.9062 5.103-9.8241 3.1852-1.0486-1.0485-2.6994-1.3318-5.5407-0.95069-4.53 0.61-6.76-1.2-6.76-5.45 0-1.7644-0.56065-2.3089-2.3776-2.3089-1.3076 0-2.9378-0.675-3.6224-1.5-1.6853-2.0306-9.4472-1.9401-17.145 0.19998l-6.1145 1.7-2.1903-2.5464c-1.2047-1.4005-3.3895-2.8474-4.8552-3.2152-4.0179-1.0084-4.3401-4.4087-1.1969-12.634 3.1737-8.3055 2.5512-10.004-3.6663-10.004-5.8327 0-8.7878-3.357-8.9831-10.205-0.16676-5.8499-0.4705-9.1669-1.4285-15.6-0.81858-5.497 2.2431-14.394 11.69-33.971 3.79-7.85 6.89-14.46 6.89-14.68 0-0.86413-6.4287-3.5479-8.4986-3.5479-1.2053 0-3.0059-0.9-4.0014-2-1.1272-1.2455-3.08-2-5.1764-2-2.592 0-3.6204-0.55746-4.4705-2.4231-0.60721-1.3327-2.1455-2.6845-3.4184-3.004-1.8218-0.45724-2.3804-1.3773-2.6245-4.3224-0.27221-3.2841-0.67692-3.804-3.3101-4.2525-2.2825-0.38873-3.0697-1.1073-3.2916-3.0045-0.16038-1.3715-0.79604-3.5007-1.4126-4.7316-1.1202-2.2364-1.0603-2.7038 2.3132-18.061 1.1289-5.139 9.6316-25.172 20.883-49.201 4.5067-9.625 9.9468-21.647 12.089-26.716 3.6022-8.5232 6.6736-15.557 26.047-59.648 3.8338-8.7252 9.241-22 12.016-29.5 2.7752-7.4998 8.4281-20.611 12.562-29.136 4.134-8.525 8.3177-17.531 9.2971-20.013 0.97937-2.4821 5.0938-11.032 9.1431-19 4.0494-7.9679 9.7936-20.562 12.765-27.987s5.9624-14.114 6.6468-14.866c1.4491-1.5901 1.1945-1.9469 9.8924 13.866 3.1766 5.775 9.8188 16.715 14.76 24.311 4.9416 7.5961 11.705 19.521 15.029 26.5 7.3321 15.393 16.193 31.042 23.432 41.383 2.9624 4.2315 8.226 13.271 11.697 20.087 3.4708 6.8162 7.6754 14.379 9.3436 16.806 1.6682 2.4272 8.6498 14.313 15.515 26.413 6.8648 12.1 15.515 27.175 19.223 33.5 3.7078 6.325 9.9027 17.8 13.766 25.5 3.8637 7.7 9.4519 17.453 12.418 21.672 6.0767 8.6443 9.3108 15.15 9.3432 18.794 0.0121 1.3566 0.74884 4.3699 1.6372 6.6961 1.5415 4.0363 1.5187 4.4292-0.5 8.5992-1.18 2.4-2.13 5.09-2.13 5.99 0 2.0386-1.4392 2.9781-6.5 4.2433-3.3299 0.83248-4.0534 1.4643-4.3185 3.7718-0.18227 1.5861-1.3586 3.4534-2.75 4.365-1.34 0.88-2.43 2.15-2.43 2.82 0 2.4058-3.8239 4.8249-6.7229 4.2531-1.9939-0.39326-3.6059 0.11653-5.7159 1.8076-2.73 2.1881-2.8483 2.5551-1.6647 5.1673 0.7007 1.5466 4.5953 7.8052 8.6547 13.908 8.4996 12.778 21.005 38.709 21.988 45.595 0.59223 4.1468 0.3808 4.9799-1.823 7.1837-1.3711 1.3711-4.1182 2.7978-6.1047 3.1705-3.27 0.61-3.62 0.99-3.62 3.91 0 3.5923-2.5445 6.5437-5.6416 6.5437-2.5942 0-7.3584 5.0164-7.3584 7.748 0 2.353-3.4347 5.252-6.2225 5.252-0.97762 0-1.7775 0.66463-1.7775 1.477 0 0.81232-1.2346 2.2748-2.7434 3.25-1.5089 0.97518-3.6464 2.7944-4.75 4.0427-1.5941 1.8031-3.5314 2.4198-9.424 3l-7.4174 0.73036-1.0826 4.5c-1.2379 5.1457-2.9818 5.8191-10.623 4.1023-3.5057-0.78767-4.7536-0.69397-6.0199 0.45202-2.3077 2.0884-4.9737 1.7868-9.1221-1.0322l-3.6464-2.4778-2.052 3.4778c-1.5976 2.7077-2.6985 3.4778-4.9714 3.4778-1.6057 0-4.2084 0.67223-5.7837 1.4938-4.0416 2.1078-9.6061 1.8904-12.637-0.49384-1.8491-1.4545-4.0568-2-8.0944-2-4.7166 0-5.9203 0.39745-8.0014 2.6418-3.1912 3.4416-4.7813 2.7077-8.2803-3.8217l-2.851-5.3201-7.6604-0.26817c-7.9978-0.27998-8.3352-0.14481-12.513 5.0128-3.0277 3.738-9.0453 7.7594-11.51 7.692-1.2742-0.0349-3.429-0.50727-4.7885-1.0498z" fill="#164e19"/>
          <path id="path4246" d="m649.66 460.61c-0.82993-20.011-0.73393-34.201 0.24839-36.714 0.7127-1.8228 0.81185-1.787 1.3837 0.5 0.3388 1.355 1.3392 11.239 2.2232 21.964 0.88397 10.725 2.0374 20.827 2.5633 22.449 0.84107 2.5941 0.62327 3.2211-1.8112 5.214-1.522 1.246-3.0343 2.2815-3.3607 2.3013-0.32639 0.0198-0.88739-7.0515-1.2467-15.714zm-34.233 13.08c1.2564-3.2741 2.3783-9.9529 3.0419-18.108 0.52355-6.4344 0.30416-9.3898-0.98519-13.272-1.6901-5.0883-1.365-12.588 2.1806-50.304 0.59706-6.3511 0.50629-6.8264-1.2393-6.4903-2.2585 0.43494-2.708 1.8545-5.4917 17.343-1.6135 8.9777-2.8555 13.07-4.9314 16.25l-2.7747 4.25-0.70713-4.75c-0.38892-2.6125-1.1814-5.3262-1.7611-6.0303-1.9499-2.3686-0.11008-18.593 2.7481-24.233 1.8866-3.7231 2.1735-4.9864 1.1324-4.9864-0.76692 0-1.9546 0.675-2.6393 1.5-1.8035 2.173-2.9145 1.855-4.0619-1.1628-0.79456-2.0898-1.2734-2.401-2.2252-1.4458-0.84885 0.85181-1.1439 5.0272-0.98326 13.913 0.23601 13.052-0.80574 23.31-3.4054 33.532-2.2528 8.8588-0.93076 7.8175 1.6696-1.3151 2.8941-10.164 4.5206-10.509 3.642-0.77157-1.5897 17.617-1.9523 33.75-0.75872 33.75 1.5159 0 2.1696-1.7598 3.0677-8.2585 0.70433-5.0965 0.73585-5.0011 1.1397 3.4472l0.41537 8.6887-6.1677 4.5613c-3.3922 2.5087-6.7076 4.5613-7.3675 4.5613-0.88634 0-1.0281-2.0246-0.54269-7.75 0.61601-7.2656 2.0415-18.927 3.1477-25.75 0.47986-2.9598 0.45934-2.9506-1.5323 0.6852-4.4376 8.101-4.9774 5.8703-1.9806-8.1852 1.114-5.225 2.466-14.417 3.0043-20.428 0.53836-6.0102 1.8698-15.194 2.9588-20.409 1.09-5.2 1.98-10.08 1.98-10.84 0-2.7498-3.0341-2.4504-7 0.69068-4.4901 3.5562-7 3.3882-7-0.46862 0-2.8701-0.66547-3.0115-6.2697-1.3324-2.5482 0.76344-4.636 2.2419-5.7479 4.0703l-1.7462 2.8714-2.1862-3.0703c-1.2024-1.6887-2.624-3.0703-3.1592-3.0703-0.5351 0-1.8621 1.9125-2.949 4.25-1.2 2.5808-1.797 3.2681-1.5202 1.75 0.65031-3.5659-2.6875-7.4011-5.7683-6.6279-1.8378 0.46125-2.5961 0.0492-3.4802-1.8912-4.2356-9.2962-9.2867 8.8541-10.827 38.905-0.55534 10.835-0.43654 12.811 0.7466 12.417 0.77387-0.25755 2.1349-2.4362 3.0245-4.8415 0.88962-2.4053 2.1988-4.567 2.9094-4.8038 0.7749-0.2583 1.0812 0.12419 0.76536 0.95583-0.28957 0.76255-1.5749 4.649-2.8562 8.6364-2.332 7.2571-3.5665 8.4032-6.8274 6.3383-1.1328-0.71732-1.2574-3.2328-0.67036-13.536 0.69805-12.253 0.17975-15.552-2.4431-15.552-0.41797 0-1.9863 3.8515-3.4853 8.5589-1.4989 4.7074-2.9314 8.3529-3.1833 8.101-0.25186-0.25185-0.56571-2.8043-0.69746-5.6721-0.19181-4.1753 0.13145-5.4407 1.6224-6.351 3.1792-1.941 5.4921-6.7846 7.6992-16.123 2.0129-8.5168 2.0326-9.0528 0.3781-10.263-1.6307-1.1924-1.5288-1.7206 1.5463-8.0139 5.4221-11.097 5.5804-11.269 9.1189-9.9335 2.3414 0.88379 3.5044 0.86589 5.0145-0.0772 1.0813-0.6753 3.823-1.8676 6.0927-2.6496 3.8701-1.3334 4.1579-1.3023 4.6293 0.50055 1.1821 4.5203 3.4581 1.0651 4.6623-7.0777 1.3066-8.8356 2.5191-7.6454 1.9027 1.8678-0.6721 10.374 0.23013 12.328 4.4234 9.5806 2.0922-1.3708 2.2795-1.3028 2.8681 1.0424 0.75929 3.0253 4.1573 3.3801 7.2689 0.75908 1.563-1.3165 2.4973-4.227 3.7722-11.75 0.93203-5.5 1.5905-11.35 1.4633-13-0.90589-11.75-0.50526-16.431 1.6006-18.702 1.4311-1.5431 2.3585-4.2698 2.8224-8.2983 0.38003-3.3 1.5176-10.5 2.5278-16 5.1932-28.272 12.304-80.82 11.207-82.815-0.24651-0.44833-1.3742 0.002-2.5059 1-2.0198 1.7817-2.0454 1.7691-1.3887-0.68486 0.36796-1.375 1.5849-8.35 2.7044-15.5 1.1194-7.15 2.6545-14.405 3.4113-16.123 1.5634-3.5485 4.7834-19.84 6.9924-35.377 0.82106-5.775 1.7661-11.625 2.1-13l0.60717-2.5-2.0167 2.4851c-4.1795 5.15-4.5411-1.2954-0.70063-12.489 2.6838-7.8225 4.8694-11.496 6.8398-11.496 1.1715 0 0.28299 8.6977-1.7838 17.462-1.5267 6.4741-4.2061 29.627-7.5268 65.038-1.1347 12.1-2.6758 27.4-3.4247 34-1.2086 10.651-1.1889 12.194 0.17518 13.728 2.1413 2.4071 1.1128 8.9452-2.1472 13.649-1.41 2.06-2.55 5.1-2.55 6.86 0 1.73-0.88449 7.7808-1.9655 13.446-1.081 5.6654-3.3273 18.401-4.9917 28.301s-3.9187 22.95-5.0097 29-2.2861 14.712-2.6559 19.25c-0.65036 7.981-0.60225 8.25 1.4752 8.25 1.624 0 2.1475 0.60942 2.1475 2.5 0 1.375 0.45 2.5 1 2.5s1.0026-0.5625 1.0059-1.25c0.003-0.6875 0.67998-5.7224 1.5039-11.189 1.1238-7.456 1.209-10.117 0.34099-10.654-1.5239-0.9418-0.51773-13.34 1.4597-17.987l1.4554-3.4206 1.4799 3.3764c1.0534 2.4035 1.7132 2.9989 2.2896 2.0664 0.61754-0.99919 0.9919-0.85122 1.5776 0.62357 1.1689 2.943-0.16071 13.699-1.9458 15.74-1.713 1.9592-2.8382 12.883-1.7668 17.152 0.38426 1.531 1.5713 2.7467 3.0425 3.116 1.3268 0.33301 2.6558 1.2399 2.9534 2.0152 1.7448 4.5469 2.3512-1.1845 2.4934-23.569 0.0873-13.738 0.56931-26.001 1.0711-27.25l0.91244-2.2717 0.0695 2.5c0.0383 1.375 0.73012 3.7665 1.5375 5.3144 2.4348 4.6681 2.8376 11.576 1.1076 18.998-1.7737 7.6092-2.105 21.198-0.61263 25.123 1.1146 2.9317 3.6754 3.4178 4.294 0.8151 0.3285-1.3822 0.65401-1.172 1.5486 1 2.211 5.3682 3.1815 2.954 3.2158-8 0.0413-13.183 1.5988-31.282 2.7949-32.479 1.5195-1.5195 3.4337 4.9541 3.4005 11.5-0.0174 3.4255-0.35425 11.125-0.74866 17.11-0.49161 7.4603-0.38964 10.68 0.32428 10.239 0.57276-0.35398 1.3368-1.9884 1.6978-3.6321 0.36105-1.6437 1.038-2.9885 1.5044-2.9885 1.4773 0 4.9925 5.1831 5.0084 7.3849 0.008 1.1633 0.43422 2.7775 0.94621 3.5871 2.0298 3.2096 2.3661-2.7644 1.2051-21.405-1.35-21.76-1.42-41.14-0.16-44.08 0.47269-1.1 0.89106-1.4701 0.92971-0.82236 0.0387 0.6477 0.5093 4.4727 1.0459 8.5 0.53657 4.0273 1.6608 15.872 2.4983 26.322 2.4746 30.876 2.2814 29.78 5.1525 29.231 1.9447-0.37176 2.7736 0.14179 3.9732 2.4616 1.0943 2.1162 2.1255 2.8446 3.7081 2.6193 1.9387-0.2759 2.2928-1.1751 3.0612-7.7742l0.86893-7.4622 1.8938 2.3387c1.0416 1.2863 2.1398 3.5193 2.4406 4.9622 1.5332 7.3554 4.8978 8.1807 5.7924 1.4209 0.70189-5.3035-0.79107-23.818-2.362-29.291-1.2423-4.3282-1.3251-17.007-0.1111-17.007 1.3225 0 1.9631 3.4233 3.1079 16.608 0.56785 6.5404 1.4362 13.242 1.9296 14.892 0.49345 1.65 1.1833 5.412 1.5331 8.36 0.67515 5.691 2.9068 10.14 5.0864 10.14 2.7893 0 1.7608-11.064-2.6207-28.193-1.0823-4.2313-2.4148-12.556-2.9609-18.5-1.0218-11.12-2.3876-19.515-4.0443-24.857-1.0846-3.4975-3.2747-15.468-5.4727-29.913-0.83379-5.4796-2.2505-11.33-3.1483-13-1.3005-2.4198-1.6808-6.5941-1.8711-20.537-0.13551-9.9314-0.94333-22.041-1.8678-28-0.89596-5.775-2.1173-14.1-2.714-18.5-1.216-8.9653-6.6479-31.057-9.7378-39.604-2.2411-6.1989-3.6865-14.521-4.4978-25.896-0.60364-8.4639-0.93982-9.4552 5.0872 15 1.9655 7.975 4.6593 17.127 5.9862 20.338 1.5434 3.7346 2.7356 9.3191 3.3091 15.5 0.49303 5.3141 2.6901 18.212 4.8824 28.662 5.6714 27.034 7.186 38.396 6.4656 48.503-0.65258 9.1564 1.2791 23.688 4.7729 35.905 1.0358 3.6221 1.885 8.6121 1.8871 11.089 0.002 2.4768 0.66266 8.3282 1.4679 13.003 5.2419 30.432 7.5056 44.983 7.5162 48.316 0.007 2.0987 0.47793 4.6862 1.0473 5.75 1.243 2.3225 5.7738 2.5956 6.6168 0.39885 0.88534-2.3072-2.3341-18.478-5.6893-28.577-3.0271-9.1113-3.7071-14.309-2.0093-15.359 1.0517-0.64998 1.5783 1.0836 6.011 19.789 1.6706 7.0496 3.5239 13.726 4.1185 14.837 1.14 2.1301 6.9587 7.7661 8.0694 7.8161 0.3587 0.0161 1.1429-1.3785 1.7428-3.0991 0.84591-2.4266 1.386-2.8833 2.4073-2.0357 0.72421 0.60104 2.5766 0.99635 4.1165 0.87846 3.8578-0.29535 5.3042 2.1259 3.6524 6.1139-1.1026 2.6618-1.5157 2.911-3.1424 1.8951-1.5865-0.99079-2.3898-0.66879-5.2519 2.1053l-3.3789 3.275-1.7046-2.6015c-1.8535-2.8288-4.969-2.7271-7.3057 0.23857-1.0886 1.3816-1.466 1.3725-3.6961-0.0887-3.1007-2.0317-4.8925-1.3732-11.016 4.0487l-4.7446 4.2006 1.576 9.1747c0.8668 5.0461 2.0801 14.181 2.6962 20.299 1.5041 14.938 7.8556 54.647 9.122 57.031 0.81071 1.5258 0.54015 2.2696-1.3559 3.7278-4.466 3.4344-5.3539 2.5678-5.5201-5.3877-0.23246-11.13-4.8971-40.306-7.8738-49.246-2.1323-6.4045-2.8111-10.852-3.4037-22.299-0.59798-11.551-1.0721-14.626-2.4666-16-1.6275-1.6037-1.8422-1.5437-3.7489 1.0488-2.5177 3.4233-5.1824 3.5231-6.6738 0.25-1.4849-3.259-2.5806-3.1533-5.182 0.5-2.5061 3.5195-5.8625 3.9144-8.5 1-2.609-2.883-5.0478-2.4679-7.3447 1.25-1.7031 2.7567-2.4873 8.4801-5.1666 37.709-1.7373 18.953-2.9676 36.278-2.7338 38.5 0.37925 3.6058-0.0505 4.606-3.9922 9.2908-4.2839 5.0916-8.2035 7.1443-6.8357 3.5799zm53.864-0.24062c-1.9722-1.6462-2.0829-2.1794-1.0308-4.9667 1.4895-3.9462 2.3991-3.9519 3.2625-0.0208 0.3747 1.706 1.5355 3.956 2.5795 5 1.8642 1.8642 1.858 1.8976-0.35182 1.8649-1.2375-0.0183-3.2442-0.86314-4.4594-1.8774zm-90.29-1.9c0-0.58629 0.40448-1.316 0.89884-1.6215 0.49436-0.30553 1.7079-4.0446 2.6968-8.309l1.7979-7.7535 0.81453 8.4054c0.44799 4.623 0.66414 8.5558 0.48032 8.7396-1.02 1-6.69 1.46-6.69 0.53zm120.07-3.6005c-0.66862-0.80565-2.4099-1.604-3.8695-1.7742-2.5587-0.29828-2.7499-0.77511-5.3351-13.309-1.4747-7.15-4.0321-18.4-5.6831-25s-3.2617-14.025-3.5795-16.5l-0.57767-4.5 1.9364 4c1.065 2.2 3.8103 11.875 6.1007 21.5s5.2385 19.872 6.5513 22.772c1.3129 2.8997 2.387 5.8765 2.387 6.6152 0 0.73864 0.9513 2.5524 2.114 4.0305 2.175 2.7651 2.1332 4.79-0.0447 2.1657zm8.5725-3.3335c-0.34091-2.0625-0.57549-5.775-0.52128-8.25l0.0986-4.5 0.76023 4c1.4043 7.3888 1.8362 12.5 1.0563 12.5-0.4257 0-1.0529-1.6875-1.3938-3.75zm-63.756 1.7058c-1.2545-0.70207-1.4945-2.0288-1.1169-6.175 0.76023-8.3482 1.8835-8.6891 2.6602-0.80733 0.39127 3.9708 0.56363 7.3675 0.38301 7.5481-0.18062 0.18062-1.0474-0.074-1.9262-0.56579zm-71.967-4.6288c0.56722-1.0048 1.7854-3.627 2.7071-5.827 1.94-4.6308 2.8465-2.9309 1.6145 3.0278-0.63187 3.0562-1.3438 4.0476-3.0871 4.2991-1.9348 0.27919-2.1151 0.06-1.2345-1.5zm149.98 0.67304c-0.091-0.825-0.23883-5.1-0.3286-9.5-0.10216-5.0069-1.1741-11.85-2.865-18.29-2.46-9.39-2.7-11.92-2.7-28.64 0-13.195-0.38332-19.283-1.3669-21.71-0.7518-1.8547-1.6497-4.5669-1.9952-6.0273-0.52468-2.2171-0.33067-2.5773 1.176-2.1833 2.7133 0.70954 4.2205-3.5502 3.4912-9.8668-0.5605-4.8549-4.5755-13.851-7.981-17.883-0.73795-0.87366-2.6272-5.3914-4.1983-10.039-1.5711-4.648-3.5674-9.8254-4.4361-11.505-0.86873-1.68-2.9829-8.4122-4.6982-14.961-1.7153-6.5484-3.7238-13.931-4.4634-16.406-0.73962-2.475-1.6194-6.0609-1.9552-7.9688-1.1885-6.7542 1.3179-1.5316 6.464 13.469 2.8303 8.25 7.4495 20.85 10.265 28 4.3944 11.16 5.1955 12.584 5.6586 10.06 0.49156-2.6791 0.86576-2.1891 4.2113 5.5144 2.0195 4.6501 3.9761 9.6673 4.3481 11.149 1.0263 4.0891 3.0308 5.355 5.9801 3.7766 1.936-1.0361 2.7357-1.0493 3.9221-0.0646 1.804 1.4971 3.5779 0.59475 3.5779-1.8201 0-0.97167 1.1751-2.8576 2.6113-4.191 2.4842-2.3063 2.5845-2.7894 2.0616-9.9243-0.30235-4.125-1.2886-9.975-2.1918-13-1.066-3.5705-1.715-9.8645-1.8499-17.941-0.18504-11.074-0.003-12.612 1.6592-14 2.58-2.14 4.73-6.45 4.73-9.45 0-1.3699 0.40705-2.7422 0.90456-3.0497 1.62-1 7.1-11.47 7.1-13.57 0-1.1221-1.575-5.1676-3.5-8.9902-1.92-3.82-3.5-7.62-3.5-8.44 0-2.7612 2.6173-0.52344 4.9488 4.2312 1.9799 4.0376 2.4148 4.426 3.0368 2.7125 1.0512-2.8958-0.78687-7.2932-4.0599-9.713-2.65-1.96-4.93-6.32-4.93-9.44 0-2.6557 1.8545-1.2739 4.5623 3.3992 1.5138 2.6125 4.116 6.3243 5.7827 8.2485s5.3886 8.4597 8.2709 14.523c2.8823 6.0637 8.5868 16.068 12.677 22.232 4.4229 6.6654 7.9161 13.14 8.6203 15.977 0.65118 2.6235 1.6122 6.1519 2.1356 7.841 1.3219 4.266 1.2457 4.9416-1.2984 11.51-2.1215 5.4772-2.4784 5.847-6.25 6.4771-5.1111 0.8539-6.5 2.02-6.5 5.4576 0 1.5238-0.63662 3.0149-1.4147 3.3134-0.77809 0.29858-2.0192 1.8092-2.7579 3.357-1.1486 2.4064-2.0187 2.8578-6.0056 3.1157-2.5643 0.16584-5.2034 0.95334-5.8645 1.75-0.66117 0.79665-1.822 1.4485-2.5797 1.4485-3.661 0-0.29503 7.0282 11.93 24.91 6.4752 9.4714 17.637 33.829 18.381 40.112 0.71038 5.998-0.47665 7.7605-5.8 8.6117-4.4368 0.70947-6.3446 2.5159-5.6128 5.3145 0.64645 2.472-1.051 4.6304-4.2762 5.4376-3.7812 0.94631-8.2036 5.3727-8.9295 8.9378-0.54786 2.6905-1.1763 3.2529-4.1086 3.6764-2.6392 0.38118-3.5377 1.0343-3.7812 2.7484-0.19359 1.363-1.2271 2.4762-2.6245 2.8269-1.2678 0.31821-2.7716 1.6023-3.3417 2.8535-1.0799 2.3701-5.8907 3.5712-14.304 3.5712-2.5743 0-4.1414 0.5678-4.83 1.75-0.8229 1.4128-1.0512 1.461-1.1847 0.25zm-169.48-4.5c1.2656-5.4547 2.1321-5.705 2.921-0.8438 0.68742 4.2361 0.22987 5.3438-2.2074 5.3438-1.5712 0-1.6469-0.47747-0.71362-4.5zm8.59 2.56c0-0.58485 0.39541-1.0634 0.87868-1.0634s1.4422-1.4625 2.1309-3.25 2.0391-5.05 3.0008-7.25c0.96175-2.2 2.0384-4.8519 2.3927-5.8931 0.35422-1.0412 0.90329-1.6339 1.2202-1.317 0.31687 0.31687 0.0765 2.09-0.53417 3.9404-0.61066 1.8503-1.443 6.043-1.8497 9.317-0.72137 5.8078-0.8185 5.9604-3.9894 6.2661-1.8256 0.17601-3.25-0.1527-3.25-0.75zm-23.333-1.73c-0.37-0.37-0.67-1.49-0.67-2.49 0-1.7277 0.10512-1.7335 2-0.11109 1.1 0.94185 2 2.0624 2 2.4902 0 0.9508-2.4132 1.0312-3.3333 0.11109zm171.02-24.928c-7.5961-20.184-13.105-39.147-9.6545-33.234 2.1496 3.6838 17.015 47.465 16.749 49.329-0.15673 1.1-3.3494-6.1428-7.0948-16.095zm-158.61-23.91c-0.10924-1.4343 3.8998-11.82 4.9989-12.95 0.57725-0.59351 0.9228-0.40588 0.92085 0.5-0.004 1.7093-5.808 13.917-5.9197 12.45zm113.55-67.75c-0.85035-3.9875-2.2365-14.45-3.0804-23.25-0.84385-8.8-2.477-24.922-3.6292-35.827-2.1239-20.101-2.0935-26.837 0.0609-13.488 0.64924 4.0229 2.1101 10.014 3.2463 13.314 1.6063 4.6652 2.1149 8.892 2.2864 19 0.19831 11.688 1.3707 27.669 3.0994 42.25 0.89466 7.5458-0.17861 6.4636-1.9835-2zm-94.087-1.75c0.926-6.5136 3.304-15.926 4.5085-17.846 1.2978-2.0679 0.46479 4.4293-1.7751 13.846-1.8649 7.8395-3.6508 10.453-2.7334 4zm-3.5221-10.25c0.0195-2.8618 1.505-5.3351 2.3668-3.9407 0.64371 1.0415-0.9012 6.1907-1.8574 6.1907-0.28861 0-0.51786-1.0125-0.50944-2.25zm156.1-10.065c-1.66-4.1754-1.1978-6.739 0.50953-2.8264 0.80607 1.8472 1.273 3.8722 1.0376 4.5-0.23537 0.6278-0.93159-0.12533-1.5472-1.6736zm-32.916-5.6849c-6.5427-19.987-14.314-52.33-11.292-47 2.1336 3.7638 14.437 50.457 13.799 52.367-0.20824 0.62312-1.3361-1.792-2.5064-5.367zm-58.559-4.1137c-2.4234-17.044-2.7269-32.886-0.63007-32.886 1.3707 0 1.9698 4.345 2.6298 19.073 0.41411 9.2416 0.28185 15.237-0.36149 16.386-0.84224 1.505-1.1204 1.068-1.6382-2.5735zm-12.091-6.7579c-0.91254-7.4776 0.23635-29.128 1.5457-29.128 1.0668 0 1.0374 29.359-0.0331 33-0.58196 1.9793-0.89701 1.1729-1.5126-3.8716zm34.193-0.66956c-3.2859-11.458-8.0579-64.866-7.5464-84.459 0.16512-6.325-0.0905-15.438-0.56807-20.25-1.0644-10.727 0.49973-11.868 2.7413-2 4.1438 18.242 7.6308 51.254 5.677 53.745-1.8343 2.3385-1.8148 12.329 0.0642 32.849 2.2653 24.74 2.187 29.023-0.36798 20.115zm49.926-8.6221c-1.6387-2.574-7.0589-21.783-6.3473-22.495 0.24498-0.24498 1.784 2.8404 3.4201 6.8564 5.1308 12.594 6.8556 21.809 2.9272 15.639zm-152.11-4.1299c0.37553-0.98622 0.93469-1.5412 1.2426-1.2333 0.30789 0.30789 0.00064 1.1148-0.68278 1.7931-0.98762 0.98026-1.1025 0.8654-0.5598-0.5598zm93.213-4.2069c-0.38839-2.75-1.0092-8.9375-1.3795-13.75-0.37032-4.8125-1.0614-8.75-1.5358-8.75-0.47436 0-0.86248 3.915-0.86248 8.7 0 19.106-3.331 1.5568-4.6407-24.45-0.70558-14.01 0.0972-16.564 3.1432-10 1.4409 3.1049 1.4889 2.8259 1.0748-6.25-0.26306-5.7653-0.10779-8.5172 0.39495-7 0.45563 1.375 0.87668 4.975 0.93565 8 0.059 3.025 0.51264 8.2 1.0081 11.5 1.3073 8.7065 3.3843 39.398 2.9438 43.5-0.35245 3.282-0.41986 3.1885-1.082-1.5zm-36.678-6.691c0.16594-8.8382 1.6849-11.468 1.8006-3.118 0.0548 3.955-0.35032 7.4691-0.90032 7.809-0.62298 0.38502-0.96242-1.3836-0.90032-4.691zm-66.653 0.45105c0.75093-2.068 2.125-5.5348 3.0536-7.7038 0.92852-2.169 2.521-7.119 3.5388-11 1.0683-4.0736 1.8738-5.8938 1.9056-4.3063 0.0351 1.7533 0.59871 2.75 1.5551 2.75 2.0362 0 1.9506 0.55983-1.5598 10.196-2.31 6.3411-3.8928 9.064-6.4592 11.112l-3.3994 2.7125 1.3653-3.7601zm189.62-12.551c-3.3563-6.8525-7.331-13.753-8.8327-15.334l-2.73-2.88-0.31278 3.2423c-0.17203 1.7832 0.61547 6.6258 1.75 10.761 4.3137 15.724 1.0861 10.65-5.5501-8.724-9.3915-27.418-21.013-54.09-28.886-66.294-15.39-23.86-18.72-30.1-23.05-43.19-2.4069-7.2778-5.313-15.069-6.458-17.313-1.145-2.2443-3.1549-8.8976-4.4665-14.785s-4.1837-16.554-6.3825-23.704c-4.84-15.747-8.35-29.358-7.91-30.675 0.45711-1.3713 14.935 24.169 18.809 33.181 1.8125 4.2164 3.1509 8.9611 3.057 10.837-0.11102 2.2189 1.0781 5.5702 3.5484 10 5.5489 9.9506 12.412 20.443 12.993 19.862 0.28149-0.28148 0.0448-2.2032-0.52604-4.2705-1.2698-4.5989-0.3081-3.7069 4.3256 4.0123 1.96 3.27 3.56 7 3.56 8.29 0 1.2918 0.9 4.1128 2 6.269 2.4163 4.7363 2.4365 5 0.38337 5-1.8004 0-1.6962 0.59555 1.5308 8.75 3.2801 8.2885 1.0049 6.0565-3.6014-3.533-3.7195-7.7434-15.756-24.011-18.562-25.085-2.5379-0.97225 2.0111 11.49 13.262 36.33 7.9035 17.45 10.975 22.889 13.988 24.771 1.0872 0.67899 3.7984 5.517 6.0249 10.751 8.2311 19.35 15.048 29.684 13.438 20.372-0.6173-3.5717-0.55749-3.708 0.81398-1.855 0.81413 1.1 3.3633 7.4 5.6648 14s7.5404 18.928 11.642 27.396c4.1016 8.4676 7.2602 15.593 7.0192 15.834-0.24108 0.24109-3.1844-5.1683-6.5406-12.021zm-200.06 5.39c0-3.3258 3.5901-13.725 5.0497-14.627 1.0591-0.65454 0.42997 3.6192-1.653 11.23-1.66 6.05-3.4 7.79-3.4 3.4zm82.391-10.676c-1.5723-6.2646 1.9886-19.54 4.7788-17.816 1.0475 0.64739 0.49151 12.77-0.83219 18.145-0.75068 3.0482-3.1491 2.848-3.9466-0.32944zm87.65-3.3401c-4.3582-8.6335-10.634-32.493-6.595-25.072 2.0683 3.8 10.814 30.065 10.212 30.667-0.28969 0.28969-1.9174-2.2282-3.617-5.5952zm-10.362-2.3661c-3.32-5.6652-4.886-12.034-4.4861-18.246l0.31984-4.9684 2.2061 7c3.1285 9.9268 5.5213 19.594 4.9832 20.132-0.25219 0.25219-1.6125-1.5107-3.023-3.9174zm34.058-24.597c-6.256-12.414-6.1378-12.117-4.829-12.117 1.3639 0 11.274 19.822 10.894 21.792-0.18385 0.95441-2.8606-3.315-6.0653-9.6742zm-93.219 4.1326c-1.4346-11.259-1.511-11.5-3.1946-10.103-1.4014 1.1631-1.5016 0.18452-0.99012-9.6766 0.31293-6.0338 1.0082-13.446 1.5452-16.471 0.53691-3.025 1.0091-14.612 1.0492-25.75 0.0451-12.522 0.44738-20.25 1.054-20.25 0.53952 0 1.2633 1.125 1.6084 2.5s1.0963 2.5 1.6694 2.5c1.2242 0 0.29474-17.492-1.2221-23-0.53016-1.925-1.1582-13.85-1.3956-26.5-0.23745-12.65-0.8993-24.189-1.4708-25.643-0.5715-1.4535-0.77601-3.6487-0.45447-4.8783 0.4917-1.8803 1.0667-1.2218 3.6178 4.1427 2.9069 6.1128 3.0406 6.9818 3.213 20.878 0.2141 17.266 1.0978 30.73 2.9534 45 2.2721 17.473 3.8118 37.622 3.0936 40.484-0.45556 1.8151-1.1544 2.515-2.1353 2.1386-1.1223-0.43067-1.4946 0.41205-1.6166 3.6591-0.0871 2.3202-0.0858 5.1186 0.003 6.2186 0.13293 1.6464-0.0131 1.7348-0.82624 0.5-0.54324-0.825-0.99461-5.475-1.003-10.333-0.0112-6.4652-0.33998-8.7251-1.2263-8.4297-0.91676 0.30559-1.139 6.7039-0.91479 26.333 0.28428 24.883-0.11591 31.43-1.9213 31.43-0.45667 0-1.1027-2.1375-1.4356-4.75zm-77.487-4.75c0-0.55 0.43621-1.675 0.96937-2.5s0.96937-1.05 0.96937-0.5-0.43621 1.675-0.96937 2.5-0.96937 1.05-0.96937 0.5zm169.6-22.838c-10.331-18.799-12.543-23.454-8.8153-18.547 4.468 5.8816 21.618 37.885 20.302 37.885-0.4729 0-5.642-8.7022-11.487-19.338zm-138.49 5.3382c0-0.825 0.38674-2.4 0.85943-3.5 0.54172-1.2606 0.85943-1.4455 0.85943-0.5 0 0.825-0.38674 2.4-0.85943 3.5-0.54172 1.2606-0.85943 1.4455-0.85943 0.5zm124.23-2.467c-1.0531-2.7442 0.19556-3.7725 1.3921-1.1464 0.74727 1.6401 0.81461 2.6134 0.18081 2.6134-0.55547 0-1.2633-0.66015-1.5729-1.467zm2.9971-10.033c-3.3675-7.3556-2.677-10.787 0.80477-4 3.3849 6.5986 4.251 9.5 2.8359 9.5-0.61749 0-2.2558-2.475-3.6407-5.5zm-144.86-11.75c0.37701-2.3375 2.4568-8.2218 4.6217-13.076 2.1649-4.8545 5.6674-13.404 7.7833-19 4.885-12.918 14.412-32.976 20.268-42.674 2.4911-4.125 4.8142-8.6837 5.1625-10.131 0.34825-1.4468 1.4992-2.857 2.5578-3.1338 1.2294-0.32149 3.58-3.8865 6.5075-9.8695 2.5206-5.1514 4.5844-8.9963 4.5864-8.5443 0.002 0.45207-1.4053 5.0703-3.127 10.263-2.2902 6.9066-4.0211 10.31-6.4484 12.678-2.9769 2.9046-8.6533 11.921-16.519 26.237-2.9662 5.3991-10.799 24.635-16.898 41.5-4.2287 11.692-7.817 20-8.6385 20-0.29761 0-0.23265-1.9125 0.14435-4.25zm24.592-1.75c0.01-1.375 0.84027-6.55 1.8454-11.5l1.8274-9 0.0708 8c0.054 6.0975-0.38489 8.8324-1.8454 11.5-1.7718 3.2363-1.9148 3.3116-1.8983 1zm115.73-4.2603c-2.34-1.89-5.83-7.35-5.83-9.1 0-2.7711 2.4246-0.71391 5.3095 4.5049 2.9345 5.3084 3.0924 6.701 0.52253 4.6078zm-87.297-7.9897c0.94884-12.534 1.6128-17.936 2.1398-17.409 0.86801 0.86801-0.87839 24.659-1.8101 24.659-0.48317 0-0.63152-3.2625-0.32966-7.25zm36.261-21.847c-1.7078-3.9231-5.1079-17.924-4.5004-18.532 0.73551-0.73551 6.8718 18.517 6.4725 20.308-0.30625 1.3728-0.79154 0.93579-1.972-1.776zm-7.1118-23.528c-2.1727-4.8593-3.8856-15.192-2.8309-17.077 0.91031-1.6266 2.292 2.4487 4.1918 12.364 1.4818 7.7337 0.8963 9.7617-1.3609 4.7134zm18.766-17.475c-1.4212-2.8047-2.3653-5.3182-2.0979-5.5856 0.55175-0.55176 1.7288 1.4948 3.9885 6.9351 2.2462 5.4075 1.1294 4.6105-1.8907-1.3494zm-40.45-62.729c0-2.2013 2.2956-7.0846 3.0974-6.589 1.5404 0.95199 1.0206 6.1805-0.6792 6.8328-2.09 0.802-2.42 0.768-2.42-0.244z" fill="#0c2d0e"/>
        </g>
      </g>
      <g id="g4383">
        <g id="g4224">
          <path id="path4228" d="m951.5 820.49c-8.8983-1.6704-18.892-8.1185-22.051-14.228-1.7235-3.3328-1.847-11.919-0.44383-30.845 0.5528-7.4561 2.3558-34.707 4.0066-60.557s3.6759-57.125 4.5002-69.5c0.82429-12.375 2.6361-40.5 4.0262-62.5 1.3902-22 2.8056-44.385 3.1454-49.745l0.61789-9.7447 5.0993-3.8867c4.8014-3.6596 5.6325-3.9266 14.228-4.5709 12.027-0.90147 21.646 1.718 26.466 7.2073l3.1437 3.5805-0.64353 31.08c-0.35394 17.094-1.1093 80.316-1.6786 140.49-0.8452 89.348-1.2872 109.9-2.4101 112.07-1.348 2.6068-5.896 6.0985-12.153 9.3309-3.6105 1.8651-19.597 2.984-25.853 1.8096z" fill="#8d631c"/>
          <path id="path4226" d="m971.63 806.44c-0.56206-9.9454-0.39357-12.635 1.0182-16.25 0.93653-2.3984 1.6085-6.5644 1.5053-9.3324-0.10254-2.75-0.22535-8.6723-0.27292-13.161-0.0778-7.3396-0.2921-8.2145-2.13-8.6951-1.8758-0.49054-1.9909-1.0517-1.402-6.8392 0.4636-4.5564 1.198-6.7653 2.6482-7.9652 1.09-0.9 1.99-2.78 1.99-4.15 0-1.3785 0.53951-2.6862 1.1989-2.906 0.82659-0.27553 0.56036-1.3107-0.85729-3.3333-2.9123-4.1551-3.9849-17.706-1.7362-21.934 1.2147-2.2834 1.5675-5.6948 1.4772-14.282-0.11468-10.9 0.76335-15.218 3.0942-15.218 0.78617 0 0.90326 3.4743 0.40447 12.002l-0.70201 12.002 2.5603 0.97345c2.4654 0.93733 2.5595 1.2803 2.5365 9.2482-0.0131 4.5511-0.46105 10.075-0.9954 12.275-0.53434 2.2-1.261 8.7256-1.6147 14.501-0.62365 10.183-0.56385 10.618 1.9702 14.352l2.6134 3.851 1.1814-2.5929c0.97554-2.1411 0.85397-3.3189-0.69772-6.76-1.3371-2.9652-1.815-6.0685-1.657-10.76 0.12217-3.6258 0.33947-27.067 0.48289-52.092 0.14341-25.025 0.62033-46.062 1.0598-46.75 0.43948-0.6875 1.4475-1.25 2.24-1.25 2.2094 0 1.7107-3.7853-0.66638-5.0575-1.524-0.81563-2.4098-0.82537-3.2-0.0352-0.60095 0.60097-1.7401 1.0927-2.5315 1.0927-1.1524 0-1.3306-1.1945-0.89486-5.9996 0.53699-5.9221-0.51932-8.9291-1.7616-5.0149-2.1568 6.7955-3.489-3.8998-1.4158-11.367 0.89352-3.2181 0.80395-4.1548-0.52434-5.483-2.3274-2.3274-4.8609-0.34537-5.8314 4.5621-0.54132 2.7372-1.5674 4.4106-3.26 5.3164-3.3374 1.7861-4.0756 0.69506-2.7897-4.1228 1.239-4.642 0.21191-5.6496-4.4501-4.3657-3.1182 0.85872-12.582 1.2181-16.082 0.61064-2.347-0.40728-2.3486-0.41823-1.8469-12.522 1.1781-28.417 2.7404-53.608 3.7394-60.296 0.59003-3.95 0.78431-8.7195 0.43174-10.599-0.59912-3.1936-0.31263-3.6786 4.3804-7.4152 4.6719-3.7198 5.5895-4.042 13.181-4.6274 6.3742-0.49154 9.6352-0.22036 14.902 1.2393 8.0192 2.2222 10.35 3.5539 12.254 7.0018 1.486 2.691 1.4817 3.7082-0.59238 141.08-0.32801 21.725-0.86695 62-1.1976 89.5-0.3307 27.5-0.88277 50.45-1.2268 51-1.7168 2.7445-2.837-15.631-1.2133-19.902 0.79362-2.0874 0.51742-3.0619-1.5713-5.5442-2.3252-2.7633-2.4108-3.1879-1.0383-5.1474 1.5617-2.2296 1.2094-4.9061-0.64577-4.9061-0.59321 0-2.1201-0.97844-3.393-2.1743l-2.29-2.16-0.17399 3.9243c-0.0957 2.1584-0.28395 6.1743-0.41835 8.9243s0.22534 6.9052 0.79942 9.2338c0.80443 3.263 0.64773 6.6483-0.68339 14.764-0.94994 5.7914-1.4915 11.144-1.2036 11.894 0.28798 0.75045 0.0188 1.8693-0.59826 2.4863-2.757 2.757-3.4296 0.98401-4.0953-10.796zm7.37-78.08c0-1.0351-0.45-2.1601-1-2.5-0.585-0.36155-1 0.67595-1 2.5s0.415 2.8616 1 2.5c0.55-0.33992 1-1.4649 1-2.5zm6.6042-109.73c-0.33229-0.33229-0.56864 0.25834-0.52522 1.3125 0.048 1.165 0.28494 1.4019 0.60416 0.60417 0.28887-0.72187 0.25335-1.5844-0.0789-1.9167zm-45.971 193.94c-1.2089-1.956-1.7938-13.101-0.77923-14.847 1.0566-1.8186 1.0862-1.8181 1.1158 0.0223 0.0167 1.0398 0.98956 3.811 2.1618 6.1582 1.4141 2.8314 1.9125 5.1401 1.481 6.8595-0.61629 2.4555-2.9294 3.5059-3.9794 1.807zm-9.4381-25.715c-0.0204-1.65 0.18706-2.4461 0.46099-1.769 0.27392 0.67703 0.29059 2.027 0.0371 3-0.25354 0.97297-0.47766 0.41903-0.49804-1.231zm27.037-46.5c0-1.925 0.2058-2.7125 0.45733-1.75 0.25152 0.9625 0.25152 2.5375 0 3.5-0.25153 0.9625-0.45733 0.175-0.45733-1.75zm-8.2334-41.05c-0.00075-3.5475-0.67513-10.275-1.4986-14.95-0.8235-4.675-1.4979-9.2545-1.4986-10.177-0.002-2.3038 6.0553-5.3364 7.1655-3.5875 1.5241 2.401 0.94032 23.084-0.79978 28.336-2.4722 7.4612-3.3669 7.5617-3.3685 0.37814zm13-15.95c0-2.75 0.21463-5 0.47695-5s1.2274 1.1454 2.1447 2.5453c1.4233 2.1722 1.4752 2.9051 0.35408 5-2.01 3.77-2.97 2.94-2.97-2.55zm4.0153-14.059c0.0168-5.9734 1.2382-9.3287 2.3455-6.4432 1.0955 2.8549 0.64126 7.9152-0.89264 9.9432-1.3485 1.7829-1.467 1.4975-1.4529-3.5zm10.352-3.1911c2.4375-16.499 2.8943-17.821 4.6042-13.324 2.608 6.8596 0.3774 17.574-3.6588 17.574-1.2828 0-1.4574-0.78479-0.94547-4.25z" fill="#4a3410"/>
        </g>
        <g id="g4204">
          <path id="path4200" d="m967.5 612.47c-1.65-0.42959-4.9553-1.7859-7.3452-3.014-3.7894-1.9473-4.5568-2.0517-6-0.81605-2.8622 2.4506-5.0988 2.7463-12.48 1.6503-5.9721-0.8868-10.75-2.8456-28.498-11.684-20.959-10.437-21.523-10.801-33-21.277-19.84-18.11-32.18-33.02-36.18-43.73-1.1291-3.0177-2.9226-10.653-3.9856-16.968-1.8176-10.797-2.257-11.982-7.3759-19.884-6.6988-10.341-10.924-21.759-13.744-37.14-1.6093-8.7776-2.9022-12.947-5.1112-16.481-4.8988-7.8383-5.9533-12.811-6.3129-29.769-0.41747-19.689-0.97088-25.026-4.5453-43.837-3.6198-19.05-3.9033-32.976-0.90973-44.681 1.1025-4.3108 5.1248-14.62 8.9385-22.91 11.259-24.474 10.958-23.38 10.811-39.21-0.14577-15.739 1.1589-21.248 8.493-35.862 5.2549-10.471 8.7206-15.483 16.685-24.13 3.9008-4.2351 7.338-9.1076 8.465-12 1.0436-2.6783 4.7934-10.862 8.3329-18.185 5.7054-11.805 7.3053-14.191 14.103-21.033 9.7015-9.7651 18.55-16.538 25.907-19.83 3.168-1.4177 8.235-4.4606 11.26-6.762 7.7385-5.8875 11.434-7.9921 20.181-11.495 9.0998-3.6437 16.518-3.97 24.819-1.0917 5.1869 1.7986 5.6352 1.811 7.8753 0.21735 5.8443-4.1577 7.7601-5.1796 9.7197-5.1846 2.56-0.006 5.0105 2.5647 6.4903 6.8097 1.648 4.7274 4.948 4.2816 10.222-1.3811l4.2529-4.5662 5.4266 2.8162c4.1016 2.1286 6.6579 2.774 10.47 2.6437 2.7737-0.0949 7.6436-0.2694 10.822-0.38789 12.21-0.45519 28.663 11.483 40.205 29.172 6.936 10.63 15.787 19.424 23.517 23.363 3.575 1.8218 7.6308 4.3728 9.013 5.6689 4.5044 4.2239 11.591 14.161 17.014 23.856 2.9225 5.225 7.0597 12.096 9.1938 15.27 8.5033 12.644 15.758 33.226 18.764 53.23 1.1569 7.7 2.7585 17.771 3.5592 22.381 1.98 11.399 1.8985 37.403-0.1586 50.612-1.3048 8.3776-1.4326 12.691-0.6666 22.489 0.5221 6.6776 0.578 14.234 0.1244 16.821-0.4529 2.5835-1.2719 8.7472-1.8199 13.697-0.5481 4.95-1.6728 11.475-2.4994 14.5-1.0567 3.8672-1.3198 7.7429-0.886 13.055 0.727 8.9031-0.9962 16.148-6.0526 25.445-6.1543 11.316-7.6348 16.81-8.6619 32.145-1.4225 21.238-2.8891 25.113-13.964 36.898-9.8217 10.451-11.273 12.807-15.802 25.657-3.9706 11.266-6.4199 15.977-10.861 20.893-5.0055 5.5405-32.257 25.704-47.085 34.837-6.7586 4.1632-14.627 9.0401-17.486 10.838-6.8337 4.2966-10.5 5.2195-20.765 5.2262-4.697 0.003-11.033 0.65493-14.08 1.4486-7.4951 1.9522-14.754 2.6102-18.38 1.6662z" fill="#289f2f"/>
          <path id="path4198" d="m968 611.69c-0.825-0.28209-3.8598-1.6688-6.744-3.0815-4.7233-2.3136-5.4183-2.4189-7-1.0602-2.9663 2.5481-5.1338 2.8478-12.581 1.7398-5.92-0.88-10.51-2.74-26.18-10.62-10.45-5.2527-21.378-11.322-24.283-13.488-8.93-6.65-34.77-32.87-39.11-39.67-5.4543-8.5603-7.723-15.014-10.168-28.925-1.6049-9.1302-2.7515-12.826-5.187-16.721-9.53-15.25-12.82-23.82-15.7-40.92-1.4164-8.4136-2.6097-12.457-4.5347-15.366-5.7728-8.7232-6.8038-13.321-7.1111-31.709-0.29671-17.756-1.097-25.344-4.4296-42-5.745-28.714-4.0944-45.318 6.6298-66.692 1.8467-3.6805 5.4271-11.33 7.9564-17l4.5988-10.308-0.63765-12c-0.53843-10.133-0.33036-13.182 1.337-19.593 3.894-14.974 12.605-30.392 23.668-41.888 5.6086-5.8284 7.044-8.2542 13.555-22.909 4.0052-9.0149 9.1645-18.948 11.465-22.073 5.3662-7.2895 22.954-21.45 31.283-25.187 3.5466-1.5913 9.1972-4.9754 12.557-7.5203 8.3089-6.294 23.975-13.282 29.858-13.319 3.3734-0.0209 1.6739 1.5046-3.5138 3.1539-8.1782 2.6001-21.19 10.408-25.495 15.299-4.046 4.5965-8.0458 14.996-6.908 17.962 0.91729 2.3904 4.7771 1.892 9.7213-1.2552 5.13-3.26 15.93-14.59 15.93-16.71 0-0.79365 0.9-2.343 2-3.443 2.4875-2.4875 10-2.8632 10-0.5 0 2.1549 3.375 1.848 5.5-0.5 3.8466-4.2504 3.4684-1.7398-0.44134 2.9299-3.3608 4.0141-5.299 5.3198-10.433 7.0283-3.5367 1.1769-7.4265 3.2935-8.8583 4.8201-3.2853 3.5027-9.2734 12.996-10.232 16.222-0.40875 1.375-1.4001 3.5407-2.2031 4.8126-1.4176 2.2455-1.7553 2.2939-11.646 1.6682-9.8362-0.62231-10.374-0.54721-15.67 2.1874-6.2369 3.2208-8.6492 6.6597-10.658 15.193-2.022 8.5906-1.7696 15.727 0.6416 18.138 2.5276 2.5276 10.093 2.7642 12.467 0.38976 0.88564-0.88563 3.1574-4.8705 5.0483-8.8552 2.9197-6.1526 4.9869-8.6719 13.711-16.709 5.65-5.21 12.52-10.98 15.27-12.83 2.75-1.8478 6.5598-5.1917 8.4662-7.431s8.2534-9.0214 14.104-15.071c9.62-9.95 13.93-15.63 13.93-18.39 0-0.56928-1.4808-0.74648-3.5-0.41882-4.536 0.7361-4.6971-1.2955-0.25-3.1539 1.7875-0.74697 4.4345-2.29 5.8823-3.429 5.81-4.57 10.87-4.44 10.87 0.29 0 3.4199 3.0468 5.6053 7.8146 5.6053 3.7421 0 4.4213-0.39932 6.8042-4 2.9558-4.4666 3.135-4.547 5.9088-2.6535 1.0849 0.74059 5.01 2.1574 8.7225 3.1484 6.941 1.8529 7.548 2.307 5.6371 4.2179-1.3438 1.3438-0.3357 3.2871 1.7052 3.2871 2.5727 0 11.04 4.7867 15.885 8.9806 2.5724 2.2264 5.9213 4.6914 7.4418 5.4777 3.6341 1.8793 18.68 3.3209 17.674 1.6935-0.3915-0.63348-0.3389-1.1518 0.1169-1.1518s2.6199 2.3148 4.809 5.1441c11.612 15.007 17.423 20.669 25.194 24.545 6.4121 3.1987 8.5446 4.9486 13.281 10.898 3.1032 3.898 7.8032 10.873 10.444 15.5 2.6413 4.627 7.2352 12.306 10.209 17.064 9.6484 15.44 16.242 33.969 18.807 52.849 0.8591 6.325 2.3445 15.325 3.3007 20 2.2581 11.039 2.2309 44.279-0.046 57-1.0577 5.9082-1.2635 10.025-0.6749 13.5 1.3463 7.9495 1.0735 22.511-0.534 28.5-0.8119 3.025-1.4816 7.7808-1.4881 10.568-0.01 2.7877-0.7407 7.5127-1.6314 10.5-1.1728 3.9331-1.4533 7.4184-1.0168 12.634 0.8337 9.9623-0.6073 16.237-6.2715 27.308-6.3628 12.436-6.8964 14.541-8.5623 33.77-1.763 20.349-3.1895 23.879-14.365 35.548-8.7992 9.188-10.605 12.226-15.636 26.303-3.8538 10.782-8.7643 18.918-13.74 22.765-13.44 10.39-33.815 25.039-38.564 27.727-3.1484 1.7819-9.5494 5.7912-14.224 8.9097-13.407 8.9429-13.904 9.1191-28.439 10.066-7.1834 0.46781-15.521 1.5372-18.529 2.3765-5.4463 1.5199-10.18 1.8305-13.032 0.85512zm-36.48-18.35c1.7782-1.9649 1.7738-2.1024-0.1517-4.6814-2.4982-3.3461-8.1645-6.3228-13.363-7.0201-3.37-0.45-4.01-0.26-4.01 1.22 0 2.7767 3.7611 8.1498 7.2843 10.406 4.095 2.6228 7.9034 2.6485 10.238 0.069zm22.332-18.299c1.3372-1.6112-0.34499-3.6762-2.9947-3.6762-2.3749 0-3.2889 1.7771-1.8227 3.5438 1.5041 1.8123 3.3804 1.8639 4.8174 0.13241zm-8.8575-5.6338c-0.007-3.0806-3.9923-7.9536-11.167-13.656-4.02-3.21-9.34-7.67-11.82-9.91-2.475-2.2473-8.325-7.044-13-10.659-11.756-9.0919-21-18.905-21-22.295 0-4.0824 1.7478-6.5208 4.6741-6.5208 1.8745 0 4.791 2.0897 10.414 7.4617 5.1538 4.9239 10.293 8.7036 15.111 11.113 5.2851 2.6432 9.2338 5.662 14.301 10.933 5.4875 5.7083 7.9706 7.5429 11.492 8.4906 9.368 2.5211 19.184-0.21893 36.304-10.134l9.2035-5.3301 11.5-0.60313c16.573-0.8692 18.709-2.1691 20.897-12.715 2.5044-12.073 8.7418-18.735 23.103-24.678 14.192-5.8728 18.644-9.0464 22.092-15.749 2.3393-4.5479 2.3799-6.1831 0.2431-9.8003-2.3756-4.0216-5.5872-5.171-16.066-5.75-16.917-0.93474-22.425 2.4593-32.808 20.219-4.3827 7.4959-8.3158 12.467-15.904 20.102-5.545 5.5787-11.589 10.923-13.432 11.876-2.4192 1.251-8.3904 2.1139-21.487 3.1052-9.9752 0.75498-19.823 1.6758-21.885 2.0463-8.18 1.47-16.7-3.43-16.7-9.65 0-5.5488 9.4112-8.9394 31.717-11.427 20.435-2.2788 25.194-4.2573 29.553-12.287 1.4133-2.6032 3.7555-8.9596 5.2049-14.125 3.3115-11.802 6.5916-18.417 11.877-23.952 9.6994-10.157 20.003-13.912 24.609-8.9676 1.1215 1.2037 2.039 2.5422 2.039 2.9743 0 0.43217 1.4395 1.5302 3.1989 2.44 4.018 2.0778 17.809 1.4784 22.565-0.98055 2.2335-1.155 5.816-1.6226 12.437-1.6231 8.1568-0.00069 10.037-0.3514 15.3-2.8537 6.286-2.9889 14.741-11.018 16.514-15.683 1.6856-4.4336 1.1984-9.96-1.0582-12.002-1.6418-1.4858-4.4564-1.9904-14.31-2.5652-6.7461-0.39352-14.131-1.2178-16.411-1.8316-4.4-1.21-10.1-5.44-10.1-7.56 0-0.72927 2.3625-3.0219 5.25-5.0947s8.625-6.7457 12.75-10.384c4.125-3.6384 10.072-7.856 13.214-9.3725 7.0434-3.3985 13.071-10.022 14.826-16.291 1.0546-3.7665 1.0677-5.7448 0.068-10.26-0.6811-3.0766-1.6208-8.4476-2.0881-11.935-0.6052-4.5166-1.8816-8.0134-4.4353-12.151-4.3847-7.1037-4.4911-10.102-0.669-18.84 1.6042-3.6672 3.6571-9.5926 4.562-13.168 0.9049-3.575 3.2587-11.45 5.2305-17.5 4.6245-14.188 4.824-19.795 0.8881-24.959-1.5965-2.0945-4.8899-4.9856-7.3185-6.4246s-7.0341-4.5289-10.234-6.8664c-6.5026-4.7495-10.56-5.4023-16.366-2.6335l-3.3898 1.6165 3.8451 6.6415c4.3552 7.5225 6.3796 16.22 5.3593 23.024-1.2015 8.012-10.766 14.899-19.319 13.911-4.2617-0.49261-4.2321-5.1018 0.062-9.6863 3.6351-3.8808 5.764-8.01 5.764-11.18 0-1.0796-3.1307-5.3393-6.9572-9.4661-7.3737-7.9526-9.0629-11.917-7.3139-17.164 0.687-2.0609 1.9261-3.0732 4.722-3.8577 3.279-0.91999 4.0395-1.719 5.634-5.9196 4.7124-12.414 4.7172-20.69 0.015-24.946-1.8433-1.6682-2.135-1.5388-7.5192 3.3372-6.6628 6.0339-10.416 6.5715-17.522 2.51-5.2528-3.0025-6.8451-5.0492-9.6713-12.432-4.3639-11.399-13.017-26.75-18.182-32.256-3.1923-3.4028-5.8952-3.4483-13.706-0.2309-5.409 2.2282-7.379 2.4705-20 2.4598-14.929-0.0126-15.098-0.0575-23.93-6.3683-2.6113-1.8658-2.6728-1.8625-4.938 0.26555-3.3317 3.13-11.633 19.371-11.625 22.745 0.004 1.5836 0.90066 4.2292 1.9934 5.8792 1.0928 1.65 1.9898 3.8467 1.9934 4.8815 0.006 1.7289-0.58134 1.829-7.2434 1.2337-3.9875-0.3563-9.1042-0.90718-11.37-1.2242-5.8197-0.81408-9.1296 1.2364-16.443 10.187-5.8151 7.1165-6.2565 8.0196-6.8844 14.086-0.40518 3.9146-1.2415 6.8531-2.1115 7.4184-0.79229 0.51487-7.1071 0.81941-14.033 0.67677-9.3728-0.19305-13.007 0.0836-14.213 1.082-0.89113 0.73775-2.998 5.0128-4.682 9.5-4.5502 12.125-5.6725 14.412-11.336 23.102l-5.1771 7.943v41.37l-3.6899 5.3718c-4.8 6.96-9.81 24.32-9.81 33.94 0 7.9982-0.58804 9.9084-3.0503 9.9084-2.6559 0-4.6381-3.375-7.5077-12.783-3.1942-10.472-5.3968-12.014-11.027-7.7203-2.0092 1.5325-4.5532 4.8212-5.6534 7.3082-2.6965 6.0959-2.0137 16.278 2.0248 30.195 1.6758 5.775 3.9397 14.34 5.0309 19.034 1.0912 4.6936 4.0512 13.761 6.5779 20.149 8.0039 20.237 8.7043 24.824 7.5302 49.317-0.47438 9.8965 1.4716 25.919 3.9171 32.251 1.0087 2.6118 4.5526 8.9273 7.8755 14.034 3.3228 5.107 6.5915 11.407 7.2638 14 3.4765 13.409 5.1161 17.05 9.4949 21.087 2.4003 2.2125 7.4374 5.572 11.194 7.4656 3.7561 1.8935 13.17 7.7067 20.92 12.918 13.538 9.1035 21.969 13.052 29.909 14.009 1.65 0.19881 7.8375 0.35209 13.75 0.34062 9.0128-0.0175 10.749-0.27009 10.746-1.5632zm-82.49-83.45c-9.71-3.08-19.5-10-19.5-13.79 0-0.99211 0.33893-1.8038 0.75318-1.8038 1.7215 0 14.27 3.9164 18.396 5.7416 5.18 2.29 11.85 7.84 11.85 9.86 0 1.7684-5.9143 1.7654-11.5-0.006zm159.89-100.01c-0.92-2.3976 0.1706-8.9217 2.8562-17.086l2.3026-7 5.9733 0.25245c5.4844 0.23178 6.2708 0.56636 9.608 4.0876 4.727 4.9878 6.0083 11.144 3.1275 15.027-2.3858 3.2158-7.2298 4.9299-16.32 5.7747-5.9322 0.55133-6.988 0.40362-7.5481-1.056zm-95.1-153.24c-1.7235-4.4914 7.1535-11.054 18.86-13.943 5.3385-1.3174 7.4979-1.4038 11.929-0.47701 7.6914 1.6087 13.41 5.0286 13.41 8.0193 0 3.6397-4.9368 4.8928-19.624 4.9813-8.4891 0.0512-14.017 0.56742-16.876 1.5761-5.4387 1.9189-6.9136 1.8888-7.6986-0.15682zm77.51 322.62c2.7502-2.5622 2.7446-3.4582-0.034-5.4043-4.5-3.13-14.8-1.19-14.8 2.76 0 4.6399 10.63 6.5308 14.811 2.6348zm114.9-328.52c1.4485-3.7747-7.6905-16.416-10.961-15.161-2.0181 0.7744-2.6101 5.0186-1.1759 8.4296 2.5024 5.9516 10.693 10.494 12.137 6.7311zm-28.047-21.035c1.0911-4.3471-0.2632-13.807-2.646-18.483-2.8703-5.6325-12.946-20.599-16.224-24.1-4.3075-4.6-10.81-7.3145-37.126-15.498-6.1619-1.9161-7.657-3.1114-12.608-10.08-2.7175-3.8244-6.0074-5.665-6.0074-3.3609 0 0.48901 1.7973 3.9647 3.994 7.7238s4.7339 9.0965 5.6383 11.861c1.9947 6.0973 5.5005 13.239 8.0127 16.322 2.4485 3.0052 12.805 5.5091 17.371 4.1997 2.0371-0.58423 3.9102-0.57023 5.0462 0.0377 0.9936 0.53176 3.5827 0.96683 5.7536 0.96683 4.6577 0 5.6064 1.0604 15.041 16.813 10.108 16.877 12.37 19.114 13.755 13.598zm-227.9-6.82c5.98-3.11 10.2-10.35 10.2-17.48 0-7.647-1.8718-8.9547-6.2462-4.3639-5.3879 5.6544-10.563 20.107-8.0871 22.583 0.89847 0.89848 1.0335 0.87437 4.133-0.73832zm106.2-57.6c0-0.55-0.45-1-1-1s-1 0.45-1 1 0.45 1 1 1 1-0.45 1-1zm-2.3285-6.4497c2.0375-5.9083 1.0617-6.5452-2.4983-1.6307-3.7355 5.1567-3.9385 6.333-1.0185 5.8999 1.488-0.22066 2.5762-1.5418 3.5168-4.2692zm67.33 2.39c0-2.1698-2.0683-4.8134-5.3554-6.8449-1.8594-1.1492-3.6651-2.0894-4.0126-2.0894-1.4308 0-0.4503 2.4416 2.452 6.1061 2.8656 3.618 6.916 5.2744 6.916 2.8282zm-42.2-8.1343c1.8694-1.8694 1.4265-2.566-1.3-2.0448-1.375 0.26285-2.5 1.1004-2.5 1.8613 0 1.7015 2.1768 1.8066 3.8 0.18342zm-8.8-4.6089c0-0.44488-0.66069-1.6824-1.4682-2.75-1.4989-1.9817-2.018-0.87182-0.92481 1.9771 0.62698 1.6339 2.393 2.2043 2.393 0.77292z" fill="#1b6a20"/>
        </g>
      </g>
      <g id="g5024">
        <g id="g4367">
          <g id="g4363">
            <path id="path4359" d="m492.25 739.11c-0.54912-0.6875-1.9823-10.7-3.185-22.25-1.2026-11.55-3.9528-37.085-6.1116-56.744s-5.2806-48.459-6.9372-64c-1.6567-15.541-5.0796-47.059-7.6064-70.04s-4.3411-42.444-4.0316-43.25c0.6153-1.6034 5.1658-2.0189 6.071-0.55425 0.31 0.50159 2.8199 22.214 5.5776 48.25 5.0909 48.065 7.8196 73.58 17.017 159.13 4.0666 37.822 4.8855 48.094 3.9264 49.25-1.486 1.7905-3.3906 1.8753-4.7205 0.21024z" fill="#fff"/>
            <path id="path4357" d="m492.5 738.11c-0.65-1.83-4.5-37.98-4.5-42.21 0-3.6817 2.4719-6.0085 3.9104-3.6809 1.0546 1.7064 5.385 44.858 4.625 46.088-0.89917 1.4549-3.5017 1.3308-4.0394-0.19265zm-10.448-98c-0.87649-2.1692-5.1092-40.498-5.0681-45.893 0.0201-2.6342 2.6676-4.6789 4.0656-3.1398 0.93253 1.0267 6.0781 49.274 5.3762 50.41-1.0164 1.6445-3.4642 0.87396-4.3736-1.3768zm-9.6267-99.5c-1.3674-2.0791-2.4808-8.7273-4.5634-27.25-1.5151-13.475-2.7779-25.914-2.8063-27.643-0.0528-3.2162 1.6742-4.7625 3.8307-3.4297 1.07 0.66 7.12 50.19 7.12 58.29 0 3.5332-1.2699 3.5459-3.5787 0.0356z" fill="#312323"/>
          </g>
          <g id="g4313">
            <path id="path4317" d="m481 546.07c-6.8018-3.3697-9.2445-5.21-12.227-9.211-4.2054-5.6425-8.5796-7.9466-13.378-7.0465-1.782 0.33431-3.5097 0.17147-3.8393-0.36185-2.275-3.6811 12.57-50.012 16.044-50.073 2.6435-0.0458 11.274 17.88 15.878 32.981 0.92236 3.025 3.7119 11.748 6.199 19.383 3.7167 11.411 4.3299 14.305 3.4436 16.25-0.59307 1.3016-1.6504 2.3491-2.3497 2.3276-0.69929-0.0214-5.0964-1.9339-9.7714-4.25z" fill="#e9e12d"/>
            <path id="path4315" d="m488.23 548.19c-0.68-0.67-1.23-2.68-1.23-4.47 0-3.6591-8.876-36.087-14.004-51.163-2.9188-8.581 0.009-5.5261 4.189 4.37 2.0746 4.9121 4.734 12.081 5.9099 15.931s3.9141 12.301 6.085 18.781c2.1709 6.4794 3.806 13.001 3.6336 14.491-0.3427 2.9636-2.6447 3.9965-4.5843 2.057zm-35.752-22.561c0.38503-2.0524 1.2226-4.6399 1.8613-5.75 1.0306-1.7913 1.1962-1.5319 1.4724 2.3055 0.29966 4.1648-0.97803 7.1761-3.0448 7.1761-0.6002 0-0.7137-1.4666-0.28879-3.7316z" fill="#70631b"/>
          </g>
        </g>
        <path id="path4989" transform="translate(0 -147.64)" fill="#67b24a" d="m503.28 857.22c0.41254 0.39421 0.77889 0.74236 1.0625 1.0625-0.0776-0.15011-0.17564-0.28524-0.25-0.375-0.19204-0.23182-0.47757-0.45945-0.8125-0.6875zm2 3.9688c-0.11188 0.40033-0.3043 0.85466-0.5625 1.375-0.75054 1.5126-3.2321 3.589-5.5312 4.625-2.2991 1.0362-6.6403 1.875-9.625 1.875-6.2723 0-9.5714-2.1582-10.25-4.8438-0.10706 2.3195 0.15605 5.4841 0.59375 10.031 0.94249 9.7912 2.4737 17.634 3.4688 17.75 0.0708 0.008 1.925 0.67706 4.125 1.4688 9.2105 3.3144 20.5-1.9625 20.5-9.5938 0-6.5135-1.3702-17.215-2.7188-22.688z"/>
      </g>
    </g>
  </g>
  <metadata>
    <rdf:RDF>
      <cc:Work>
        <dc:format>image/svg+xml</dc:format>
        <dc:type rdf:resource="http://purl.org/dc/dcmitype/StillImage"/>
        <cc:license rdf:resource="http://creativecommons.org/licenses/publicdomain/"/>
        <dc:publisher>
          <cc:Agent rdf:about="http://openclipart.org/">
            <dc:title>Openclipart</dc:title>
          </cc:Agent>
        </dc:publisher>
        <dc:title>Golf Green</dc:title>
        <dc:date>2013-07-06T02:07:28</dc:date>
        <dc:description>Golf balls near a hole on a golf green. </dc:description>
        <dc:source>http://openclipart.org/detail/180028/golf-green-by-mazeo-180028</dc:source>
        <dc:creator>
          <cc:Agent>
            <dc:title>mazeo</dc:title>
          </cc:Agent>
        </dc:creator>
        <dc:subject>
          <rdf:Bag>
            <rdf:li>ball</rdf:li>
            <rdf:li>balls</rdf:li>
            <rdf:li>flag</rdf:li>
            <rdf:li>flagpole</rdf:li>
            <rdf:li>game</rdf:li>
            <rdf:li>games</rdf:li>
            <rdf:li>golf</rdf:li>
            <rdf:li>golf ball</rdf:li>
            <rdf:li>golf balls</rdf:li>
            <rdf:li>golf course</rdf:li>
            <rdf:li>golf flag</rdf:li>
            <rdf:li>golf green</rdf:li>
            <rdf:li>golf hole</rdf:li>
            <rdf:li>grass</rdf:li>
            <rdf:li>green</rdf:li>
            <rdf:li>hole</rdf:li>
            <rdf:li>sport</rdf:li>
            <rdf:li>sports</rdf:li>
            <rdf:li>trees</rdf:li>
            <rdf:li>upload2openclipart</rdf:li>
          </rdf:Bag>
        </dc:subject>
      </cc:Work>
      <cc:License rdf:about="http://creativecommons.org/licenses/publicdomain/">
        <cc:permits rdf:resource="http://creativecommons.org/ns#Reproduction"/>
        <cc:permits rdf:resource="http://creativecommons.org/ns#Distribution"/>
        <cc:permits rdf:resource="http://creativecommons.org/ns#DerivativeWorks"/>
      </cc:License>
    </rdf:RDF>
  </metadata>
</svg>
